<svg xmlns="http://www.w3.org/2000/svg" version="1.1" xmlns:xlink="http://www.w3.org/1999/xlink" xmlns:svgjs="http://svgjs.dev/svgjs" width="1000" height="1000" viewBox="0 0 1000 1000"><rect width="1000" height="1000" fill="#ffffff"></rect><g transform="matrix(0.7,0,0,0.7,150,106.25)"><svg viewBox="0 0 320 360" data-background-color="#ffffff" preserveAspectRatio="xMidYMid meet" height="1125" width="1000" xmlns="http://www.w3.org/2000/svg" xmlns:xlink="http://www.w3.org/1999/xlink"><g id="tight-bounds" transform="matrix(1,0,0,1,0,0)"><svg viewBox="0 0 320 360" height="360" width="320"><g><svg></svg></g><g><svg viewBox="0 0 320 360" height="360" width="320"><g><path xmlns="http://www.w3.org/2000/svg" d="M297.491 100.645c-12.426-21.51-112.674-79.355-137.491-79.355-24.817 0-125.028 57.845-137.491 79.355-11.591 20.02-11.591 138.726 0 158.746 12.463 21.474 112.674 79.319 137.491 79.319 24.817 0 125.064-57.845 137.491-79.355 11.591-20.02 11.591-138.69 0-158.71zM309.481 93.705c-14.461-24.998-119.469-86.295-149.481-86.295-30.012 0-135.02 61.297-149.481 86.295-14.025 24.199-14.025 148.391 0 172.59 14.461 24.998 119.469 86.295 149.481 86.295 30.012 0 135.02-61.297 149.481-86.259 14.025-24.235 14.025-148.427 0-172.626zM300.906 261.353c-12.753 22.055-115.472 81.317-140.906 81.318-25.434 0-128.153-59.298-140.906-81.354-11.881-20.529-11.881-142.178 0-162.707 12.753-22.019 115.472-81.281 140.906-81.281 25.434 0 128.153 59.298 140.906 81.318 11.881 20.529 11.881 142.178 0 162.706z" fill="#0023ff" fill-rule="nonzero" stroke="none" stroke-width="1" stroke-linecap="butt" stroke-linejoin="miter" stroke-miterlimit="10" stroke-dasharray="" stroke-dashoffset="0" font-family="none" font-weight="none" font-size="none" text-anchor="none" style="mix-blend-mode: normal" data-fill-palette-color="tertiary"></path></g><g transform="matrix(1,0,0,1,48,92.92266337653814)"><svg viewBox="0 0 224 174.15467324692372" height="174.15467324692372" width="224"><g><svg viewBox="0 0 224 174.15467324692372" height="174.15467324692372" width="224"><g transform="matrix(1,0,0,1,0,107.63457480557835)"><svg viewBox="0 0 224 66.52009844134537" height="66.52009844134537" width="224"><g id="textblocktransform"><svg viewBox="0 0 224 66.52009844134537" height="66.52009844134537" width="224" id="textblock"><g><svg viewBox="0 0 224 66.52009844134537" height="66.52009844134537" width="224"><g transform="matrix(1,0,0,1,0,0)"><svg width="224" viewBox="4.849999904632568 -35.349998474121094 121.88999938964844 36.19999694824219" height="66.52009844134537" data-palette-color="#ffffff"><path d="M4.85 0.05L4.85-34.8 6.6-34.8 28.05-8 28.75-6.75 28.7-8.15 28.65-34.35 32.7-34.35 32.7 0.05 30.6 0.05 27.7-2.8 10.65-23.3 8.7-25.9 8.95-22.6 8.95 0.05 4.85 0.05ZM57.15 0.85Q52.35 0.85 48.47-1.53 44.6-3.9 42.4-7.95 40.2-12 40.2-16.85L40.2-16.85Q40.2-21.8 42.52-26.05 44.85-30.3 48.77-32.83 52.7-35.35 57.35-35.35L57.35-35.35Q61.9-35.35 65.65-33.33 69.4-31.3 69.3-26L69.3-26 65.35-26Q65.5-29.15 62.87-30.35 60.25-31.55 57.1-31.55L57.1-31.55Q53.6-31.55 50.65-29.48 47.7-27.4 45.95-23.98 44.2-20.55 44.2-16.7L44.2-16.7Q44.2-13 45.87-9.85 47.55-6.7 50.5-4.83 53.45-2.95 57.2-2.95L57.2-2.95Q60.7-2.95 63.67-4.55 66.65-6.15 68.4-9.1L68.4-9.1 71.75-6.8Q69.4-3 65.47-1.07 61.55 0.85 57.15 0.85L57.15 0.85ZM77.1-13.45L77.1-17.25 92.65-17.25 92.65-13.45 77.1-13.45ZM124.94-3.65L126.74-0.5Q125.84 0.5 123.84 0.5L123.84 0.5Q121.24 0.5 119.64-1.6L119.64-1.6 113.84-9.55Q112.89-10.8 112.17-11.55 111.44-12.3 110.22-12.83 108.99-13.35 107.19-13.4L107.19-13.4 107.19-17.25 111.99-17.25Q114.94-17.25 116.64-18.98 118.34-20.7 118.34-23.7L118.34-23.7Q118.34-26.7 116.72-28.6 115.09-30.5 112.54-30.5L112.54-30.5 105.34-30.5 105.34 0.05 101.24 0.05 101.24-34.3 112.74-34.3Q115.44-34.3 117.67-32.9 119.89-31.5 121.17-29.18 122.44-26.85 122.44-24.2L122.44-24.2Q122.44-21 120.74-18.45 119.04-15.9 116.59-15.2L116.59-15.2Q115.39-14.85 112.59-14.85L112.59-14.85Q114.04-14.45 114.72-14.03 115.39-13.6 116.19-12.6L116.19-12.6 118.04-10.1Q121.94-4.85 122.44-4.2L122.44-4.2Q122.89-3.65 123.22-3.43 123.54-3.2 123.89-3.2L123.89-3.2Q124.49-3.2 124.94-3.65L124.94-3.65Z" opacity="1" transform="matrix(1,0,0,1,0,0)" fill="#ffffff" class="undefined-text-0" data-fill-palette-color="quaternary" id="text-0"></path></svg></g></svg></g></svg></g></svg></g><g transform="matrix(1,0,0,1,50.50524683196053,0)"><svg viewBox="0 0 122.98950633607895 91.93077604593931" height="91.93077604593931" width="122.98950633607895"><g><svg xmlns="http://www.w3.org/2000/svg" xmlns:xlink="http://www.w3.org/1999/xlink" version="1.1" x="0" y="0" viewBox="1.100000023841858 13.400001525878906 97.80000305175781 73.1024169921875" enable-background="new 0 0 100 100" xml:space="preserve" height="91.93077604593931" width="122.98950633607895" class="icon-icon-0" data-fill-palette-color="quaternary" id="icon-0"><path d="M1.1 79.9v-4.1h5.4 0.3V33.2c0-3.4 2.7-6.1 6.1-6.1h23.7c-0.5 2-0.8 4.1-0.8 6.3 0 0.7 0 1.3 0.1 2H15v40.4h21.2v0.4c0 1.3 1 2.3 2.3 2.3h11.6c1.3 0 2.3-1 2.3-2.3v-0.4h21.2V58.5H79c1 0 2-0.1 3-0.2v17.4h0.3 5.4v4.1c0 3.7-3 6.7-6.7 6.7h-6.4H14.2 7.8C4.1 86.6 1.1 83.6 1.1 79.9zM40.8 33.4c0-11 9-20 20-20h18.1c11 0 20 9 20 20 0 11-9 20-20 20H65.4l-9.2 9.2c-0.6 0.6-1.7 0.2-1.7-0.7v-9.5C46.5 49.7 40.8 42.3 40.8 33.4zM52.7 33.5c0 1.1 0.2 2.1 0.6 3.1 0.4 1 1 1.9 1.8 2.7 0.8 0.8 1.7 1.4 2.7 1.8 1 0.4 2 0.6 3.1 0.6 1.1 0 2.1-0.2 3.1-0.6 1-0.4 1.9-1 2.7-1.8l0.6-0.6-2.6-2.6-0.6 0.6c-0.9 0.9-2 1.3-3.2 1.3-1.2 0-2.3-0.5-3.2-1.3-0.9-0.9-1.3-2-1.3-3.2s0.5-2.3 1.3-3.2c0.9-0.9 2-1.3 3.2-1.3 1.2 0 2.3 0.5 3.2 1.3l3.2 3.2 5.8 5.8c0.8 0.8 1.7 1.4 2.7 1.8 1 0.4 2 0.6 3.1 0.6 1.1 0 2.1-0.2 3.1-0.6 1-0.4 1.9-1 2.7-1.8 0.8-0.8 1.4-1.7 1.8-2.7 0.4-1 0.6-2 0.6-3.1 0-1.1-0.2-2.1-0.6-3.1-0.4-1-1-1.9-1.8-2.7-0.8-0.8-1.7-1.4-2.7-1.8-1-0.4-2-0.6-3.1-0.6-1.1 0-2.1 0.2-3.1 0.6-1 0.4-1.9 1-2.7 1.8l-0.7 0.7L75 31l0.7-0.7c0.9-0.9 2-1.3 3.2-1.3 1.2 0 2.3 0.5 3.2 1.3 0.9 0.9 1.3 2 1.3 3.2s-0.5 2.3-1.3 3.2c-0.9 0.9-2 1.3-3.2 1.3-1.2 0-2.3-0.5-3.2-1.3l-1.3-1.3-7.7-7.7c-0.8-0.8-1.7-1.4-2.7-1.8-1-0.4-2-0.6-3.1-0.6-1.1 0-2.1 0.2-3.1 0.6-1 0.4-1.9 1-2.7 1.8-0.8 0.8-1.4 1.7-1.8 2.7C52.9 31.4 52.7 32.4 52.7 33.5z" fill="#ffffff" data-fill-palette-color="quaternary"></path></svg></g></svg></g><g></g></svg></g></svg></g></svg></g><defs></defs></svg><rect width="320" height="360" fill="none" stroke="none" visibility="hidden"></rect></g></svg></g></svg>